<?xml version="1.0" encoding="utf-8"?>
<!-- Generator: Adobe Illustrator 22.0.0, SVG Export Plug-In . SVG Version: 6.00 Build 0)  -->
<svg version="1.1" id="gopher" xmlns="http://www.w3.org/2000/svg" xmlns:xlink="http://www.w3.org/1999/xlink" x="0px" y="0px"
	 viewBox="0 0 1100 1100" style="enable-background:new 0 0 1100 1100;" xml:space="preserve">
<style type="text/css">
	.st0{fill:#00BCD4;}
	.st1{fill:#4DD0E1;}
	.st2{fill:none;stroke:#1D1D1B;stroke-width:6;stroke-linecap:round;stroke-linejoin:round;stroke-miterlimit:10;}
	.st3{fill:none;stroke:#1D1D1B;stroke-width:10;stroke-linecap:round;stroke-miterlimit:10;}
	.st4{fill:#F6D29F;stroke:#1D1D1B;stroke-width:10;stroke-linecap:round;stroke-linejoin:round;stroke-miterlimit:10;}
	.st5{fill:#69D7E0;stroke:#1D1D1B;stroke-width:10;stroke-linecap:round;stroke-miterlimit:10;}
	.st6{fill:#EEEEEE;}
	.st7{fill:#95A9B9;}
	.st8{fill:none;stroke:#1D1D1B;stroke-width:17;stroke-linecap:round;stroke-miterlimit:10;}
	.st9{fill:#FFFFFF;}
	.st10{fill:#B9B9B9;}
	.st11{fill:none;stroke:#1D1D1B;stroke-width:7;stroke-miterlimit:10;}
	.st12{fill:#CCBDAC;}
	.st13{fill:#958B7F;}
	.st14{fill:#595755;}
	.st15{fill:#454342;}
	.st16{fill:none;stroke:#1D1D1B;stroke-width:8;stroke-miterlimit:10;}
	.st17{fill:#595755;stroke:#1D1D1B;stroke-width:4;stroke-linecap:round;stroke-miterlimit:10;}
	.st18{fill:#FAFAFA;stroke:#1D1D1B;stroke-width:8;stroke-miterlimit:10;}
	.st19{clip-path:url(#SVGID_2_);fill:#26C6DA;stroke:#1D1D1B;stroke-width:10;stroke-miterlimit:10;}
	.st20{fill:none;stroke:#1D1D1B;stroke-width:4;stroke-linecap:round;stroke-linejoin:round;stroke-miterlimit:10;}
	.st21{opacity:0.5;fill:#D9D9D9;}
	.st22{fill:#1D1D1B;}
	.st23{fill:#FAFAFA;stroke:#1D1D1B;stroke-width:10;stroke-miterlimit:10;}
	.st24{clip-path:url(#SVGID_4_);fill:#26C6DA;stroke:#1D1D1B;stroke-width:10;stroke-miterlimit:10;}
</style>
<g id="ear1_2_">
	<path class="st0" d="M825.8,109.8c0,0,29.8-47.2,77.3-48.9c0,0,51.3-1.1,52.9,46.3c0,0,2.6,39.7-46,80.5"/>
	<path class="st1" d="M879.2,65.5c0,0,46.9-25.2,66.5,16.8c19.5,42-19.5,79.9-19.5,79.9s-35.2-21,0-42c0,0-19.5,13.5-23.5-10.1
		C902.7,111.7,844.1,132.8,879.2,65.5z"/>
	<path class="st2" d="M892,96.8c0,0,3.9,15.6-19.5,46.8c0,0,23.4-7.8,46.8-3.9"/>
	<path class="st3" d="M825.8,109.8c0,0,29.8-47.2,77.3-48.9c0,0,51.3-1.1,52.9,46.3c0,0,2.6,39.7-46,80.5"/>
</g>
<g id="ear2_2_">
	<path class="st0" d="M271.4,103.9c0,0-29.8-47.2-77.3-48.9c0,0-51.3-1.1-52.9,46.3c0,0-2.6,39.7,46,80.5"/>
	<path class="st1" d="M248.5,97.3c0,0,3.9-34.7-67.4-41.2c-47.6-1.4-22,41.2-22,41.2s11.4,22,33.4,23.8c22,1.8,9.2-19.5,9.2-19.5
		s12.8,8.5,25.6,8.5S248.5,97.3,248.5,97.3z"/>
	<path class="st3" d="M271.4,103.9c0,0-29.8-47.2-77.3-48.9c0,0-51.3-1.1-52.9,46.3c0,0-2.6,39.7,46,80.5"/>
	<path class="st2" d="M175.2,113.3c0,0,23.4,3.9,46.8,23.4c0,0-11.7-27.3-7.8-39"/>
</g>
<path class="st4" d="M972.5,503c0,0,48.3,2.4,60.4,33.8c0,0,4.8,16.9-19.3,7.2c0,0,29,14.5-4.8,24.2c0,0-9.7,4.8-36.2-16.9"/>
<path class="st4" d="M116.3,503c0,0-48.3,2.4-60.4,33.8c0,0-4.8,16.9,19.3,7.2c0,0-29,14.5,4.8,24.2c0,0,9.7,4.8,36.2-16.9"/>
<path id="shape_2_" class="st5" d="M114,1065V621.6c0,0,7.8-204.6,27.3-268.6c0,0,11.7-72.5,23.4-102.3
	c9.7-24.7,19.4-69.9,62.3-113.8c8.9-9.1,19.3-18.1,31.3-26.9c0,0,85.9-63.9,203-72.5c0,0,101.5-17.1,210.8,8.5
	c0,0,66.3,8.5,152.2,59.7c0,0,66.3,42.6,93.7,93.8c0,0,35.1,81,50.7,243c0,0,15.6,196.1,15.6,319.7c0,0,3.9,208.9-3.9,302.7"/>
<path id="belly_2_" class="st6" d="M280.5,1065H784c0,0-19.5-54.6-23.4-89.8c0-54.6-27.3-144.4-101.5-175.6
	c-74.2-31.2-171.7-50.7-288.8,39C370.3,838.6,280.5,924.5,280.5,1065z"/>
<g id="wings_2_">
	<path class="st7" d="M593.9,466.9c0,0,27.5,10.3,44.8-17.8c0,0,0.8,27.7-26.3,34c-13.4,5.9-21.7,33.8-21.7,33.8
		S594.8,500.1,593.9,466.9z"/>
	<path class="st7" d="M506.2,474.7c0,0-27.5,10.3-44.8-17.8c0,0-0.8,27.7,26.3,34c13.4,5.9,21.7,33.8,21.7,33.8
		S505.3,507.9,506.2,474.7z"/>
</g>
<g id="teeth_2_">
	<path class="st8" d="M510.8,479.2c0,0-3.9,39,11.7,50.7c15.6,11.7,42.9,3.9,42.9,3.9s23.4-3.9,27.3-62.4"/>
	<path class="st9" d="M510.8,472.3c0,0-3.9,43.7,11.7,56.8c15.6,13.1,42.9,4.4,42.9,4.4s23.4-4.4,27.3-69.9"/>
	<path class="st10" d="M510.9,475.5c0,0-7.9,54.4,24.4,60.1c0,0-19.5-27.3,4.9-54.7c24.4-27.3,14.6,27.3,14.6,27.3
		s6.8-36.9,34.1-43.7C588.9,464.5,554.7,448.1,510.9,475.5z"/>
	<path class="st11" d="M549.8,467.4c0,0,2,30.4,3.9,37.5c2,11.7,0,32.8,0,32.8"/>
</g>
<g id="nose_2_">
	<path class="st12" d="M493.4,389.4c0,0-43.1,33.2-31.4,64.4c11.7,31.2,31.2,23.4,31.2,23.4s39-15.6,58.5-15.6
		c19.5,0,66.3,7.8,66.3,7.8s31.2,0,19.5-50.7c-11.7-27.3-43.4-39-43.4-39"/>
	<path class="st13" d="M499.8,385.9c0,0-35.9,29.3-35.9,68.3c9,29.3,40.4,19.5,40.4,19.5s35.9-14.6,44.9-14.6s-80.7,0-22.4-39
		c0,0,9-4.9,22.4-4.9C549.2,415.2,508.8,410.3,499.8,385.9z"/>
	<path class="st3" d="M493.4,389.4c0,0-43.1,33.2-31.4,64.4c11.7,31.2,31.2,23.4,31.2,23.4s39-15.6,58.5-15.6
		c19.5,0,66.3,7.8,66.3,7.8s31.2,0,19.5-50.7c-11.7-27.3-43.4-39-43.4-39"/>
	<path class="st14" d="M497.1,364c0,0,42.9-35.1,89.8-7.8c27.3,15.6-11.7,46.8-15.6,46.8c0,0-31.2,19.5-66.3-7.8
		C504.9,395.2,485.4,383.5,497.1,364z"/>
	<path class="st15" d="M549.7,350.4c0,0-44.6,0-54.5,24.8c5,14.9,29.7,34.7,64.4,29.7C559.6,404.8,490.2,375.1,549.7,350.4z"/>
	<path class="st16" d="M497.1,364c0,0,42.9-35.1,89.8-7.8c27.3,15.6-11.7,46.8-15.6,46.8c0,0-31.2,19.5-66.3-7.8
		C504.9,395.2,485.4,383.5,497.1,364z"/>
	<path class="st17" d="M563.5,364c0,0,11.7,3.9,11.7,15.6"/>
</g>
<g id="eye1_2_">
	<circle class="st18" cx="398" cy="260" r="101.5"/>
	<g>
		<defs>
			<circle id="SVGID_1_" cx="398" cy="256" r="101.5"/>
		</defs>
		<clipPath id="SVGID_2_">
			<use xlink:href="#SVGID_1_"  style="overflow:visible;"/>
		</clipPath>
		<ellipse class="st19" cx="397.5" cy="373.5" rx="186.5" ry="101.5"/>
	</g>
	<path class="st20" d="M329,298c0,0,67-13,138,0"/>
	<path class="st21" d="M323,258.5c0-46.3,27.7-86.1,67.5-103.8c-52.7,3.4-95,47.8-95,101.3c0,49.1,35.6,90.5,82.3,99.6
		C344.9,335.7,323,299.7,323,258.5z"/>
	<circle class="st22" cx="423.5" cy="217.5" r="21.5"/>
	<circle class="st9" cx="436" cy="209" r="6"/>
</g>
<g id="eye2_2_">
	<circle class="st23" cx="712" cy="261" r="101.5"/>
	<g>
		<defs>
			<circle id="SVGID_3_" cx="712" cy="256" r="101.5"/>
		</defs>
		<clipPath id="SVGID_4_">
			<use xlink:href="#SVGID_3_"  style="overflow:visible;"/>
		</clipPath>
		<ellipse class="st24" cx="711.5" cy="373.5" rx="186.5" ry="101.5"/>
	</g>
	<path class="st20" d="M731.1,293.6c16.7,0.7,33.5,2.4,49.9,5.4"/>
	<path class="st20" d="M643,299c25-5,50-6,75.1-5.8"/>
	<path class="st21" d="M637,258.5c0-46.3,27.7-86.1,67.5-103.8c-52.7,3.4-95,47.8-95,101.3c0,49.1,35.6,90.5,82.3,99.6
		C658.9,335.7,637,289,637,258.5z"/>
	<circle class="st22" cx="687.5" cy="218.5" r="21.5"/>
	<circle class="st9" cx="700" cy="210" r="6"/>
</g>
</svg>
